<svg
  xmlns="http://www.w3.org/2000/svg"
  width="1418.951"
  height="633.456"
  viewBox="0 0 1418.951 633.456"
>
  <g id="Group_77" data-name="Group 77" transform="translate(26.475 -69)">
    <g id="Group_46" data-name="Group 46" transform="translate(2 -1708)">
      <path
        id="Path_1745"
        data-name="Path 1745"
        d="M1395.284,334.531l-58.137,19.94c-58.137,19.194-174.411,60.192-290.684,79.386C930.189,453.8,813.916,453.8,697.642,414.1c-116.274-40.439-223.42-66.037-339.693-56.72S116.274,414.663,58.137,463.674L0,513.43V96H1395.284Z"
        transform="matrix(0.999, 0.035, -0.035, 0.999, -4.687, 1848.644)"
        fill="#2d6fab"
      />
    </g>
    <g id="Group_75" data-name="Group 75" transform="translate(-0.979 -3)">
      <g id="Group_76" data-name="Group 76" transform="translate(0 5)">
        <path
          id="Path_1744"
          data-name="Path 1744"
          d="M0,192l56.917-10.7C113.833,171,227.667,149,341.5,138.7,455.333,128,569.167,128,683,149.3,796.833,171,910.667,213,1024.5,208s227.667-59,284.583-85.3L1366,96V320H0Z"
          transform="translate(2 -29)"
          fill="#2d6fab"
        />
        <path
          id="Path_1746"
          data-name="Path 1746"
          d="M1395.284,188.264l-58.137-20.984c-58.137-20.2-167.091-129.22-283.365-149.419C937.509-3.123,813.916,62.755,697.642,104.526,581.368,147.081,465.095,229.446,348.821,219.641S116.274,103.937,58.137,52.361L0,0V439.282H58.137c58.137,0,160.307,49.47,276.581,49.47s246.651-49.47,362.924-49.47h697.642Z"
          transform="translate(1393.455 592.443) rotate(177)"
          fill="rgba(43,111,173,0.31)"
        />
      </g>
    </g>
  </g>
</svg>
