<svg
  id="Group_68"
  data-name="Group 68"
  xmlns="http://www.w3.org/2000/svg"
  width="162"
  height="172"
  viewBox="0 0 162 172"
>
  <rect
    id="Rectangle_653"
    data-name="Rectangle 653"
    width="162"
    height="172"
    fill="none"
  />
  <path
    id="Path_1763"
    data-name="Path 1763"
    d="M129.533,45.472l-6.844,39.864A13.742,13.742,0,0,1,109.4,97.085H44.105l2.457,14.309h60.524a13.623,13.623,0,0,1,12.889,9.976A14.784,14.784,0,0,1,114.9,137.4a12.915,12.915,0,0,1-15.962-.272,14.824,14.824,0,0,1-4.587-16.193H61.272a14.707,14.707,0,0,1-6.079,17.241,13.006,13.006,0,0,1-17.087-3.355,14.963,14.963,0,0,1,.162-18.4l-15.6-90.877H12.5A4.643,4.643,0,0,1,8,20.77,4.643,4.643,0,0,1,12.5,16H22.666a9.162,9.162,0,0,1,8.863,7.833l2.75,16.015H125.1a4.408,4.408,0,0,1,3.457,1.713,4.976,4.976,0,0,1,.974,3.91Z"
    fill="#702c8d"
  />
</svg>
