<svg
  xmlns="http://www.w3.org/2000/svg"
  width="1366"
  height="426.824"
  viewBox="0 0 1366 426.824"
>
  <g id="Group_74" data-name="Group 74" transform="translate(126 -171.176)">
    <path
      id="Path_1743"
      data-name="Path 1743"
      d="M0,0H1366V268.03H0Z"
      transform="translate(-126 329.97)"
      fill="#05dfd7"
    />
    <path
      id="Path_1751"
      data-name="Path 1751"
      d="M0,0,8.727,7.94A240.3,240.3,0,0,1,52.174,58.208c17.834,26.648,35.1,63.369,53.122,63.518,17.265-.149,35.1-36.87,52.174-52.9,17.644-15.731,35.1-10.768,53.122-2.68,17.075,7.791,34.15,18.708,52.174,21.189,17.454,2.481,35.1-2.481,52.174-5.31,17.834-2.63,35.1-2.63,53.122-15.879C385.326,53.1,403.16,26.3,420.235,23.819c17.549-2.481,35.1,18.361,52.174,21.189,17.929,2.63,35.1-13.249,53.122,0,17.36,13.051,35.1,55.727,52.174,76.717,17.739,21.189,35.1,21.189,53.122,13.249,17.17-7.94,35.1-23.819,52.174-47.638,17.549-23.819,35.1-55.578,52.174-68.827,17.834-13.051,35.1-8.089,53.122,10.619,17.265,18.509,35.1,50.268,52.174,63.518,17.644,13.051,35.1,8.089,53.122,5.26,17.075-2.63,34.15-2.63,52.174,2.68,17.454,5.111,35.1,16.028,52.174,5.26,17.834-10.57,35.1-42.329,53.122-58.208,17.265-15.879,35.1-15.879,52.174-21.189,17.549-5.111,35.1-16.028,52.174-18.509,17.929-2.481,35.1,2.481,53.122,21.189,17.36,18.509,35.1,50.268,52.174,55.578,17.739,5.111,35.1-15.731,53.122-23.819,17.17-7.791,35.1-2.829,43.636,0l8.538,2.63v95.276H0Z"
      transform="translate(-126 171.176)"
      fill="#05dfd7"
    />
  </g>
</svg>
