<svg
  xmlns="http://www.w3.org/2000/svg"
  width="228"
  height="109.896"
  viewBox="0 0 228 109.896"
>
  <g id="Group_69" data-name="Group 69" transform="translate(-107 -102.104)">
    <text
      id="CP_Party_Rental"
      data-name="CP Party Rental"
      transform="translate(107 203)"
      fill="#638cd6"
      font-size="34"
      font-family="SegoeUI, Segoe UI"
    ><tspan x="0" y="0">CP</tspan><tspan y="0" fill="#2d6fab"> </tspan><tspan
        y="0"
      >Party Rental</tspan></text>
    <g id="Group_60" data-name="Group 60" transform="translate(92.717 95.104)">
      <g
        id="Group_57"
        data-name="Group 57"
        transform="translate(-64.912 -28.182)"
      >
        <g
          id="Group_1"
          data-name="Group 1"
          transform="translate(168.153 46.63)"
        >
          <rect
            id="Rectangle_1"
            data-name="Rectangle 1"
            width="6.205"
            height="23.152"
            transform="translate(2.433 16.32)"
            fill="rgba(251,193,226,0.94)"
          />
          <path
            id="Path_1"
            data-name="Path 1"
            d="M26.683,88.022v7.216a1.059,1.059,0,0,1-1,1.108H19.529a1.059,1.059,0,0,1-1-1.108V88.022Z"
            transform="translate(-17.07 -80.026)"
            fill="#cfe9ff"
          />
          <path
            id="Path_2"
            data-name="Path 2"
            d="M14.25,22.328H4.184a.561.561,0,0,1-.39-.9l5.03-6.886a.472.472,0,0,1,.779,0l5.036,6.886A.561.561,0,0,1,14.25,22.328Z"
            transform="translate(-3.682 -14.334)"
            fill="#638cd6"
          />
          <rect
            id="Rectangle_2"
            data-name="Rectangle 2"
            width="6.205"
            height="23.152"
            transform="translate(40.887 16.32)"
            fill="rgba(251,193,226,0.94)"
          />
          <path
            id="Path_3"
            data-name="Path 3"
            d="M418.523,88.022v7.216a1.059,1.059,0,0,1-1,1.108h-6.153a1.059,1.059,0,0,1-1-1.108V88.022Z"
            transform="translate(-370.456 -80.026)"
            fill="#cfe9ff"
          />
          <path
            id="Path_4"
            data-name="Path 4"
            d="M406.09,22.328H396.024a.561.561,0,0,1-.39-.9l5.03-6.886a.472.472,0,0,1,.779,0l5.035,6.886A.561.561,0,0,1,406.09,22.328Z"
            transform="translate(-357.068 -14.334)"
            fill="#638cd6"
          />
          <path
            id="Path_5"
            data-name="Path 5"
            d="M73.711,175.9H67.647c0-9.873-7.266-17.906-16.2-17.906S35.256,166.028,35.256,175.9H29.192c0-13.57,9.985-24.611,22.257-24.611S73.711,162.331,73.711,175.9Z"
            transform="translate(-26.689 -136.429)"
            fill="#cfe9ff"
          />
          <path
            id="Path_6"
            data-name="Path 6"
            d="M355.932,417.948v4.325h13a2.067,2.067,0,0,0,1.956-2.163h0a2.067,2.067,0,0,0-1.956-2.163h-13Z"
            transform="translate(-321.363 -374.151)"
            fill="#05dfd7"
          />
          <path
            id="Path_7"
            data-name="Path 7"
            d="M18.637,457.806v4.325h-13a2.067,2.067,0,0,1-1.956-2.163h0a2.067,2.067,0,0,1,1.956-2.163h13Z"
            transform="translate(-3.682 -409.684)"
            fill="#638cd6"
          />
          <path
            id="Path_8"
            data-name="Path 8"
            d="M18.637,417.948v4.325h-13a2.067,2.067,0,0,1-1.956-2.163h0a2.067,2.067,0,0,1,1.956-2.163h13Z"
            transform="translate(-3.682 -374.151)"
            fill="#05dfd7"
          />
          <path
            id="Path_9"
            data-name="Path 9"
            d="M18.637,378.089v4.325h-13a2.067,2.067,0,0,1-1.956-2.163h0a2.067,2.067,0,0,1,1.956-2.163h13Z"
            transform="translate(-3.682 -338.617)"
            fill="#fff591"
          />
          <path
            id="Path_10"
            data-name="Path 10"
            d="M159.575,342.539v15.1h-3.509v-15.1a1.854,1.854,0,0,1,1.755-1.94h0A1.854,1.854,0,0,1,159.575,342.539Z"
            transform="translate(-141.111 -305.195)"
            fill="rgba(251,193,226,0.94)"
          />
          <path
            id="Path_11"
            data-name="Path 11"
            d="M355.932,457.806v4.325h13a2.067,2.067,0,0,0,1.956-2.163h0a2.067,2.067,0,0,0-1.956-2.163h-13Z"
            transform="translate(-321.363 -409.684)"
            fill="#638cd6"
          />
          <path
            id="Path_12"
            data-name="Path 12"
            d="M355.932,378.089v4.325h13a2.067,2.067,0,0,0,1.956-2.163h0a2.067,2.067,0,0,0-1.956-2.163h-13Z"
            transform="translate(-321.363 -338.617)"
            fill="#fff591"
          />
          <path
            id="Path_13"
            data-name="Path 13"
            d="M320.176,342.539v15.1h3.509v-15.1a1.854,1.854,0,0,0-1.755-1.94h0A1.854,1.854,0,0,0,320.176,342.539Z"
            transform="translate(-289.116 -305.195)"
            fill="rgba(251,193,226,0.94)"
          />
          <rect
            id="Rectangle_3"
            data-name="Rectangle 3"
            width="12.597"
            height="12.974"
            transform="translate(18.464 39.474)"
            fill="#cfe9ff"
          />
        </g>
        <ellipse
          id="Ellipse_9"
          data-name="Ellipse 9"
          cx="2.677"
          cy="2.908"
          rx="2.677"
          ry="2.908"
          transform="translate(138.478 72.854)"
          fill="#2d6fab"
        />
        <ellipse
          id="Ellipse_8"
          data-name="Ellipse 8"
          cx="3.666"
          cy="3.477"
          rx="3.666"
          ry="3.477"
          transform="translate(189.249 35.182)"
          fill="#2d6fab"
        />
        <ellipse
          id="Ellipse_13"
          data-name="Ellipse 13"
          cx="1.833"
          cy="1.738"
          rx="1.833"
          ry="1.738"
          transform="translate(196.581 54.37)"
          fill="rgba(251,193,226,0.94)"
        />
        <ellipse
          id="Ellipse_11"
          data-name="Ellipse 11"
          cx="1.833"
          cy="1.738"
          rx="1.833"
          ry="1.738"
          transform="translate(153.332 86.312)"
          fill="rgba(251,193,226,0.94)"
        />
        <path
          id="Path_129"
          data-name="Path 129"
          d="M0,0,6.934.159l.023,3.164L.023,3.164Z"
          transform="matrix(-0.81, -0.587, 0.587, -0.81, 244.961, 73.937)"
          fill="#05dfd7"
        />
        <path
          id="Path_1755"
          data-name="Path 1755"
          d="M.417.807,7.645.479l-.2,3.044L.217,3.851Z"
          transform="translate(145.87 57.872) rotate(-66.06)"
          fill="#fff591"
        />
        <ellipse
          id="Ellipse_46"
          data-name="Ellipse 46"
          cx="2.677"
          cy="2.908"
          rx="2.677"
          ry="2.908"
          transform="translate(235.917 88.246)"
          fill="#2d6fab"
        />
        <ellipse
          id="Ellipse_47"
          data-name="Ellipse 47"
          cx="1.833"
          cy="1.738"
          rx="1.833"
          ry="1.738"
          transform="translate(232.251 47.602)"
          fill="#fff591"
        />
      </g>
    </g>
  </g>
</svg>
