<svg
  xmlns="http://www.w3.org/2000/svg"
  width="150"
  height="180.434"
  viewBox="0 0 150 180.434"
>
  <g
    id="Group_72"
    data-name="Group 72"
    transform="translate(-881.136 -303.247)"
  >
    <circle
      id="Ellipse_33"
      data-name="Ellipse 33"
      cx="75"
      cy="75"
      r="75"
      transform="translate(881.136 333.682)"
      fill="#fff591"
    />
    <g id="Group_3" data-name="Group 3" transform="translate(880.136 279.247)">
      <path
        id="Path_18"
        data-name="Path 18"
        d="M34.754,305.345V256H27.585v49.345L24,309.293v3.948H38.338v-3.948Z"
        transform="translate(0 -174.759)"
        fill="#cdccc8"
      />
      <path
        id="Path_19"
        data-name="Path 19"
        d="M48.961,288v13.021A27.375,27.375,0,0,1,40,321.555h0V288Z"
        transform="translate(-12.415 -198.864)"
        fill="#5078a2"
      />
      <path
        id="Path_20"
        data-name="Path 20"
        d="M434.754,305.345V256h-7.169v49.345L424,309.293v3.948h14.338v-3.948Z"
        transform="translate(-310.386 -174.759)"
        fill="#cdccc8"
      />
      <path
        id="Path_21"
        data-name="Path 21"
        d="M75.976,24h0A129.205,129.205,0,0,1,36.289,61.954L24,69.4H127.952l-12.289-7.444A129.205,129.205,0,0,1,75.976,24Z"
        transform="translate(0)"
        fill="#6699ce"
      />
      <path
        id="Path_22"
        data-name="Path 22"
        d="M285.329,108.461a1.69,1.69,0,0,1-1.146-.457A133,133,0,0,1,273.5,97a2.118,2.118,0,0,1,.061-2.791,1.678,1.678,0,0,1,2.534.067,129.2,129.2,0,0,0,10.377,10.694,2.1,2.1,0,0,1,.539,2.188A1.81,1.81,0,0,1,285.329,108.461Zm8.96,7.492a1.671,1.671,0,0,1-1.017-.35c-1.1-.839-2.21-1.709-3.289-2.587a2.107,2.107,0,0,1-.378-2.76,1.687,1.687,0,0,1,2.506-.416c1.049.854,2.125,1.7,3.2,2.514a2.083,2.083,0,0,1,.693,2.212,1.821,1.821,0,0,1-1.712,1.386Z"
        transform="translate(-193.222 -52.476)"
        fill="#75b0ec"
      />
      <path
        id="Path_23"
        data-name="Path 23"
        d="M54.338,232l-.684,9.793c-.693,9.924-5.807,18.824-13.654,23.762h0V232Z"
        transform="translate(-12.415 -156.681)"
        fill="#5b89b9"
      />
      <path
        id="Path_24"
        data-name="Path 24"
        d="M432,288v13.021a27.374,27.374,0,0,0,8.961,20.534h0V288Z"
        transform="translate(-316.594 -198.864)"
        fill="#5078a2"
      />
      <path
        id="Path_25"
        data-name="Path 25"
        d="M408,232l.684,9.793c.693,9.924,5.807,18.824,13.654,23.762h0V232Z"
        transform="translate(-297.971 -156.681)"
        fill="#5b89b9"
      />
      <path
        id="Path_26"
        data-name="Path 26"
        d="M24,263.9c4.331,0,4.331,3.948,8.662,3.948s4.332-3.948,8.662-3.948,4.331,3.948,8.663,3.948,4.331-3.948,8.663-3.948,4.331,3.948,8.662,3.948,4.331-3.948,8.661-3.948,4.331,3.948,8.662,3.948S88.967,263.9,93.3,263.9s4.331,3.948,8.663,3.948,4.331-3.948,8.663-3.948,4.332,3.948,8.664,3.948,4.332-3.948,8.664-3.948V256H24Z"
        transform="translate(0 -174.759)"
        fill="#6699ce"
      />
      <rect
        id="Rectangle_4"
        data-name="Rectangle 4"
        width="104"
        height="12.379"
        transform="translate(24 69.161)"
        fill="#5b89b9"
      />
    </g>
  </g>
</svg>
